<svg width="15" height="16" viewBox="0 0 15 16" fill="none" xmlns="http://www.w3.org/2000/svg">
<path d="M4.75 7.125H3.16667V8.70833H4.75V7.125ZM7.91667 7.125H6.33333V8.70833H7.91667V7.125ZM11.0833 7.125H9.5V8.70833H11.0833V7.125ZM12.6667 1.58333H11.875V0H10.2917V1.58333H3.95833V0H2.375V1.58333H1.58333C0.704583 1.58333 0 2.29583 0 3.16667V14.25C0 14.6699 0.166815 15.0727 0.463748 15.3696C0.76068 15.6665 1.16341 15.8333 1.58333 15.8333H12.6667C13.0866 15.8333 13.4893 15.6665 13.7863 15.3696C14.0832 15.0727 14.25 14.6699 14.25 14.25V3.16667C14.25 2.74674 14.0832 2.34401 13.7863 2.04708C13.4893 1.75015 13.0866 1.58333 12.6667 1.58333ZM12.6667 14.25H1.58333V5.54167H12.6667V14.25Z" fill="#A2A2A2"/>
</svg>
