<svg width="18" height="19" viewBox="0 0 18 19" fill="none" xmlns="http://www.w3.org/2000/svg">
<path d="M16 12.6667H12C12 13.5065 11.6839 14.312 11.1213 14.9058C10.5587 15.4997 9.79565 15.8333 9 15.8333C8.20435 15.8333 7.44129 15.4997 6.87868 14.9058C6.31607 14.312 6 13.5065 6 12.6667H2V2.11111H16M16 0H2C0.89 0 0 0.95 0 2.11111V16.8889C0 17.4488 0.210714 17.9858 0.585786 18.3817C0.960859 18.7776 1.46957 19 2 19H16C16.5304 19 17.0391 18.7776 17.4142 18.3817C17.7893 17.9858 18 17.4488 18 16.8889V2.11111C18 1.55121 17.7893 1.01424 17.4142 0.61833C17.0391 0.22242 16.5304 0 16 0Z" fill="white"/>
</svg>
